<svg width="18" height="18" viewBox="0 0 18 18" fill="none" xmlns="http://www.w3.org/2000/svg">
<path d="M1.5 1.5H1.72333C2.11833 1.5 2.31583 1.5 2.4775 1.57083C2.61917 1.63417 2.74083 1.735 2.8275 1.86333C2.9275 2.00833 2.96333 2.2025 3.03417 2.58917L4.83333 12.3333H13.5183C13.8958 12.3333 14.085 12.3333 14.2417 12.2667C14.3797 12.2076 14.4992 12.1123 14.5875 11.9908C14.6875 11.8533 14.73 11.67 14.815 11.3025V11.3L16.1233 5.63333C16.2517 5.07583 16.3167 4.79583 16.2458 4.57667C16.1832 4.38451 16.0529 4.22165 15.8792 4.11833C15.6825 4 15.3967 4 14.825 4H3.58333M14 16.5C13.779 16.5 13.567 16.4122 13.4107 16.2559C13.2545 16.0996 13.1667 15.8877 13.1667 15.6667C13.1667 15.4457 13.2545 15.2337 13.4107 15.0774C13.567 14.9211 13.779 14.8333 14 14.8333C14.221 14.8333 14.433 14.9211 14.5893 15.0774C14.7455 15.2337 14.8333 15.4457 14.8333 15.6667C14.8333 15.8877 14.7455 16.0996 14.5893 16.2559C14.433 16.4122 14.221 16.5 14 16.5ZM5.66667 16.5C5.44565 16.5 5.23369 16.4122 5.07741 16.2559C4.92113 16.0996 4.83333 15.8877 4.83333 15.6667C4.83333 15.4457 4.92113 15.2337 5.07741 15.0774C5.23369 14.9211 5.44565 14.8333 5.66667 14.8333C5.88768 14.8333 6.09964 14.9211 6.25592 15.0774C6.4122 15.2337 6.5 15.4457 6.5 15.6667C6.5 15.8877 6.4122 16.0996 6.25592 16.2559C6.09964 16.4122 5.88768 16.5 5.66667 16.5Z" stroke="#E70B19" stroke-width="1.7" stroke-linecap="round" stroke-linejoin="round"/>
</svg>
