<svg width="20" height="15" viewBox="0 0 20 15" fill="none" xmlns="http://www.w3.org/2000/svg">
<path d="M5.41671 9.74992H8.16671C8.40982 9.74992 8.64298 9.65334 8.81489 9.48143C8.9868 9.30952 9.08337 9.07637 9.08337 8.83325C9.08337 8.59014 8.9868 8.35698 8.81489 8.18507C8.64298 8.01316 8.40982 7.91659 8.16671 7.91659H5.41671C5.17359 7.91659 4.94043 8.01316 4.76853 8.18507C4.59662 8.35698 4.50004 8.59014 4.50004 8.83325C4.50004 9.07637 4.59662 9.30952 4.76853 9.48143C4.94043 9.65334 5.17359 9.74992 5.41671 9.74992ZM16.4167 0.583252H3.58337C2.85403 0.583252 2.15456 0.872983 1.63883 1.38871C1.12311 1.90443 0.833374 2.60391 0.833374 3.33325V11.5833C0.833374 12.3126 1.12311 13.0121 1.63883 13.5278C2.15456 14.0435 2.85403 14.3333 3.58337 14.3333H16.4167C17.1461 14.3333 17.8455 14.0435 18.3613 13.5278C18.877 13.0121 19.1667 12.3126 19.1667 11.5833V3.33325C19.1667 2.60391 18.877 1.90443 18.3613 1.38871C17.8455 0.872983 17.1461 0.583252 16.4167 0.583252ZM17.3334 11.5833C17.3334 11.8264 17.2368 12.0595 17.0649 12.2314C16.893 12.4033 16.6598 12.4999 16.4167 12.4999H3.58337C3.34026 12.4999 3.1071 12.4033 2.93519 12.2314C2.76328 12.0595 2.66671 11.8264 2.66671 11.5833V6.08325H17.3334V11.5833ZM17.3334 4.24992H2.66671V3.33325C2.66671 3.09014 2.76328 2.85698 2.93519 2.68507C3.1071 2.51316 3.34026 2.41659 3.58337 2.41659H16.4167C16.6598 2.41659 16.893 2.51316 17.0649 2.68507C17.2368 2.85698 17.3334 3.09014 17.3334 3.33325V4.24992Z" fill="#2C2F3A"/>
</svg>
