<svg width="16" height="16" viewBox="0 0 16 16" fill="none" xmlns="http://www.w3.org/2000/svg">
<path d="M13.44 3.33328C12.7333 2.62475 11.7965 2.19231 10.7989 2.11406C9.80123 2.03581 8.80849 2.31692 7.99998 2.90661C7.15175 2.27571 6.09597 1.98962 5.04526 2.10597C3.99455 2.22232 3.02694 2.73247 2.3373 3.53367C1.64765 4.33488 1.2872 5.36763 1.32851 6.42396C1.36983 7.48029 1.80986 8.48173 2.55998 9.22661L6.69998 13.3733C7.04666 13.7145 7.51357 13.9057 7.99998 13.9057C8.48639 13.9057 8.9533 13.7145 9.29998 13.3733L13.44 9.22661C14.2184 8.44346 14.6553 7.38413 14.6553 6.27995C14.6553 5.17577 14.2184 4.11644 13.44 3.33328V3.33328ZM12.5 8.30661L8.35998 12.4466C8.31287 12.4942 8.2568 12.5319 8.19501 12.5577C8.13322 12.5835 8.06693 12.5968 7.99998 12.5968C7.93303 12.5968 7.86674 12.5835 7.80495 12.5577C7.74316 12.5319 7.68709 12.4942 7.63998 12.4466L3.49998 8.28661C2.97715 7.75218 2.68439 7.03426 2.68439 6.28661C2.68439 5.53897 2.97715 4.82105 3.49998 4.28661C4.03275 3.76061 4.7513 3.46566 5.49998 3.46566C6.24866 3.46566 6.96721 3.76061 7.49998 4.28661C7.56196 4.3491 7.63569 4.3987 7.71693 4.43254C7.79817 4.46639 7.88531 4.48381 7.97331 4.48381C8.06132 4.48381 8.14846 4.46639 8.2297 4.43254C8.31094 4.3987 8.38467 4.3491 8.44665 4.28661C8.97942 3.76061 9.69796 3.46566 10.4466 3.46566C11.1953 3.46566 11.9139 3.76061 12.4466 4.28661C12.9767 4.81405 13.279 5.52807 13.289 6.27574C13.299 7.0234 13.0157 7.74524 12.5 8.28661V8.30661Z" fill="#2C2F3A"/>
</svg>
