<svg width="17" height="21" viewBox="0 0 17 21" fill="none" xmlns="http://www.w3.org/2000/svg">
<path d="M8.49996 10.5002C9.07288 10.5002 9.5635 10.296 9.97183 9.88766C10.3795 9.48002 10.5833 8.98975 10.5833 8.41683C10.5833 7.84391 10.3795 7.35329 9.97183 6.94495C9.5635 6.53732 9.07288 6.3335 8.49996 6.3335C7.92704 6.3335 7.43676 6.53732 7.02913 6.94495C6.62079 7.35329 6.41663 7.84391 6.41663 8.41683C6.41663 8.98975 6.62079 9.48002 7.02913 9.88766C7.43676 10.296 7.92704 10.5002 8.49996 10.5002ZM8.49996 18.1564C10.618 16.212 12.1892 14.4453 13.2135 12.8564C14.2378 11.2682 14.75 9.8578 14.75 8.62516C14.75 6.7328 14.1465 5.18315 12.9395 3.9762C11.7333 2.76995 10.2534 2.16683 8.49996 2.16683C6.74649 2.16683 5.26628 2.76995 4.05933 3.9762C2.85308 5.18315 2.24996 6.7328 2.24996 8.62516C2.24996 9.8578 2.76211 11.2682 3.78642 12.8564C4.81072 14.4453 6.3819 16.212 8.49996 18.1564ZM8.49996 20.5262C8.36107 20.5262 8.22218 20.5002 8.08329 20.4481C7.9444 20.396 7.82288 20.3266 7.71871 20.2397C5.18399 18.0002 3.29163 15.9213 2.04163 14.0033C0.791626 12.0845 0.166626 10.2918 0.166626 8.62516C0.166626 6.021 1.00447 3.94634 2.68017 2.4012C4.35517 0.856065 6.2951 0.0834961 8.49996 0.0834961C10.7048 0.0834961 12.6448 0.856065 14.3198 2.4012C15.9954 3.94634 16.8333 6.021 16.8333 8.62516C16.8333 10.2918 16.2083 12.0845 14.9583 14.0033C13.7083 15.9213 11.8159 18.0002 9.28121 20.2397C9.17704 20.3266 9.05551 20.396 8.91663 20.4481C8.77774 20.5002 8.63885 20.5262 8.49996 20.5262Z" fill="#2C2F3A"/>
</svg>
