<svg width="18" height="18" viewBox="0 0 18 18" fill="none" xmlns="http://www.w3.org/2000/svg">
<path d="M14.0259 12.3473L17.595 15.9157L16.4159 17.0948L12.8475 13.5257C11.5198 14.59 9.86835 15.1689 8.16669 15.1665C4.02669 15.1665 0.666687 11.8065 0.666687 7.6665C0.666687 3.5265 4.02669 0.166504 8.16669 0.166504C12.3067 0.166504 15.6667 3.5265 15.6667 7.6665C15.6691 9.36817 15.0902 11.0196 14.0259 12.3473ZM12.3542 11.729C13.4118 10.6414 14.0024 9.18353 14 7.6665C14 4.44317 11.3892 1.83317 8.16669 1.83317C4.94335 1.83317 2.33335 4.44317 2.33335 7.6665C2.33335 10.889 4.94335 13.4998 8.16669 13.4998C9.68371 13.5022 11.1416 12.9116 12.2292 11.854L12.3542 11.729Z" fill="#2C2F3A"/>
</svg>
